# xmcd
#
# Track frame offsets:
#	150
#	15009
#	28094
#	42424
#	58845
#	74423
#	85972
#	99431
#	113754
#	126471
#	139655
#	151987
#	166436
#	179671
#	196276
#	209137
#	225012
#	238704
#	250076
#	264200
#	279078
#
# Disc length: 3901 seconds
#
# Revision: 2
# Processed by: cddbd v1.5.2PL0 Copyright (c) Steve Scherf et al.
# Submitted via: EasyCDDAExtractor 11.5.3.1
#
DISCID=1f0f3b15
DTITLE=Various Artist - Pennies From heaven DISC2
DYEAR=1930
DGENRE=Oldies
TTITLE0=Sam Browne - Day By Day
TTITLE1=Carroll Gibbons - Isn't It Romantic
TTITLE2=Betty Driver - So Little Time
TTITLE3=Fats Waller - When Somebody Thinks You're Wonderful
TTITLE4=Tony Paster - I Can't Give You Anything But Love
TTITLE5=Judy Garland - Cry Baby Cry
TTITLE6=Jimmy Messene - This Is Romance
TTITLE7=Al Bowlly - Moon Love
TTITLE8=Roy Fox and His Band - All I Do Is Dream Of You
TTITLE9=Frank Sinatra - Here Comes The Night
TTITLE10=Dorothy Carless with Sam Costa - You Must Have Been A Beautiful Baby
TTITLE11=Nat Gonella and His Georgians - Bessie Couldn't Help It
TTITLE12=Bob Crosby and His Bobcats - Who's Sorry Now?
TTITLE13=Connie Haines - All Of Me
TTITLE14=The Ink Spots - Your Feet's Too Big
TTITLE15=Turner Layton - These Foolish Things (Remind Me Of You)
TTITLE16=Elsie Carlisle - It's The Talk Of The Town
TTITLE17=Benny Goodman and His Orchestra - Goody Goody
TTITLE18=The Andrews Sisters  - Bei Mir Bist Du Schon
TTITLE19=Fred Astaire - Cheek To Cheek
TTITLE20=Nat Gonella and His Georgians - Nagasaki
EXTD=YEAR: 1930
EXTT0=
EXTT1=
EXTT2=
EXTT3=
EXTT4=
EXTT5=
EXTT6=
EXTT7=
EXTT8=
EXTT9=
EXTT10=
EXTT11=
EXTT12=
EXTT13=
EXTT14=
EXTT15=
EXTT16=
EXTT17=
EXTT18=
EXTT19=
EXTT20=
PLAYORDER=
